<svg width="50" height="50" viewBox="0 0 50 50" fill="none" xmlns="http://www.w3.org/2000/svg">
<path d="M16.6667 16.6667L16.6667 14.5833C16.6667 9.98096 20.3976 6.25 25 6.25V6.25C29.6024 6.25 33.3334 9.98096 33.3334 14.5833L33.3334 16.6667" stroke="white" stroke-width="2" stroke-linecap="round"/>
<path d="M31.25 29.1667V25" stroke="white" stroke-width="2" stroke-linecap="round"/>
<path d="M18.75 29.1667V25" stroke="white" stroke-width="2" stroke-linecap="round"/>
<path d="M8.33331 20.6667C8.33331 18.781 8.33331 17.8382 8.9191 17.2525C9.50489 16.6667 10.4477 16.6667 12.3333 16.6667H37.6666C39.5523 16.6667 40.4951 16.6667 41.0809 17.2525C41.6666 17.8382 41.6666 18.781 41.6666 20.6667V35.75C41.6666 39.5212 41.6666 41.4069 40.4951 42.5784C39.3235 43.75 37.4379 43.75 33.6666 43.75H16.3333C12.5621 43.75 10.6765 43.75 9.50489 42.5784C8.33331 41.4069 8.33331 39.5212 8.33331 35.75V20.6667Z" stroke="white" stroke-width="2"/>
</svg>
