<svg width="50" height="50" viewBox="0 0 50 50" fill="none" xmlns="http://www.w3.org/2000/svg">
<path d="M10.4167 28.5825C10.4167 25.7539 10.4167 24.3395 10.9885 23.0963C11.5603 21.8531 12.6341 20.9327 14.7818 19.0918L16.8651 17.3061C20.747 13.9787 22.688 12.3151 25 12.3151C27.312 12.3151 29.253 13.9787 33.1349 17.3061L35.2182 19.0918C37.3659 20.9327 38.4398 21.8531 39.0116 23.0963C39.5834 24.3395 39.5834 25.7539 39.5834 28.5825V37.4167C39.5834 41.345 39.5834 43.3092 38.363 44.5296C37.1426 45.75 35.1784 45.75 31.25 45.75H18.75C14.8216 45.75 12.8575 45.75 11.6371 44.5296C10.4167 43.3092 10.4167 41.345 10.4167 37.4167V28.5825Z" stroke="#222222"/>
<path d="M30.2084 43.75V32.25C30.2084 31.6977 29.7606 31.25 29.2084 31.25H20.7917C20.2394 31.25 19.7917 31.6977 19.7917 32.25V43.75" stroke="#222222" stroke-linecap="round" stroke-linejoin="round"/>
</svg>
